<svg width="44" height="42" viewBox="0 0 44 42" fill="none" xmlns="http://www.w3.org/2000/svg">
<path fill-rule="evenodd" clip-rule="evenodd" d="M26.3285 1.51956C26.1046 0.799588 25.483 0.274572 24.7341 0.178062C22.9178 -0.0593539 21.0802 -0.0593539 19.2658 0.178062C18.5169 0.274572 17.8935 0.799588 17.6696 1.51956L16.9477 3.84932C16.1794 4.07129 15.4267 4.34538 14.6951 4.66772L12.6452 3.34939C12.0102 2.94019 11.1956 2.93826 10.5606 3.34553C9.01838 4.33187 7.60932 5.51315 6.37013 6.86044C5.86056 7.41634 5.71965 8.21931 6.01111 8.91418L6.95498 11.1629C6.51104 11.8269 6.10955 12.5217 5.75633 13.2398L3.33777 13.5467C2.58885 13.6413 1.9654 14.1643 1.73956 14.8843C1.19138 16.6312 0.8729 18.4417 0.789901 20.2696C0.755157 21.0224 1.16243 21.7288 1.83414 22.0724L4.00177 23.19C4.08863 23.9852 4.2276 24.7728 4.41869 25.5506L2.76257 27.3399C2.25107 27.8939 2.10823 28.6949 2.39776 29.3918C3.10036 31.0826 4.02107 32.675 5.13287 34.1285C5.59033 34.7288 6.35662 35.0048 7.09203 34.8388L9.47004 34.3003C10.0472 34.8542 10.661 35.3677 11.3076 35.8406L11.1879 38.2765C11.1532 39.0293 11.5585 39.7357 12.2283 40.0832C13.8535 40.9247 15.5811 41.554 17.3685 41.9535C18.1039 42.1176 18.8682 41.8397 19.3257 41.2374L20.8023 39.2956C21.5995 39.3497 22.4005 39.3497 23.1977 39.2956L24.6743 41.2374C25.1298 41.8397 25.8942 42.1176 26.6315 41.9535C28.417 41.554 30.1445 40.9247 31.7697 40.0832C32.4414 39.7357 32.8468 39.0293 32.8101 38.2765L32.6924 35.8406C33.3371 35.3677 33.9509 34.8542 34.5299 34.3003L36.9079 34.8388C37.6433 35.0048 38.4077 34.7288 38.8671 34.1285C39.9789 32.675 40.8977 31.0826 41.6022 29.3918C41.8917 28.6949 41.7489 27.8939 41.2374 27.3399L39.5813 25.5487C39.7724 24.7728 39.9113 23.9833 39.9963 23.1881L42.1658 22.0724C42.8356 21.7288 43.2448 21.0224 43.2101 20.2696C43.1271 18.4417 42.8086 16.6312 42.2604 14.8843C42.0346 14.1643 41.4111 13.6413 40.6622 13.5467L38.2417 13.2378C37.8885 12.5217 37.4889 11.8269 37.0431 11.1629L37.9869 8.91418C38.2803 8.21931 38.1394 7.41634 37.6279 6.86044C36.3887 5.51315 34.9816 4.33187 33.4394 3.34553C32.8024 2.93826 31.9898 2.94019 31.3547 3.34939L29.3029 4.66772C28.5714 4.34538 27.8186 4.07129 27.0504 3.84739C27.0523 3.84932 26.3285 1.51956 26.3285 1.51956ZM21.999 9.94877C15.7722 9.94877 10.715 15.004 10.715 21.2328C10.715 27.4615 15.7722 32.5168 21.999 32.5168C28.2278 32.5168 33.2849 27.4615 33.2849 21.2328C33.2849 15.004 28.2278 9.94877 21.999 9.94877Z" fill="#ABD01B"/>
<path d="M29.4248 21.2328C29.4248 17.135 26.0971 13.8093 21.9993 13.8093C17.9014 13.8093 14.5757 17.135 14.5757 21.2328C14.5757 25.3307 17.9014 28.6564 21.9993 28.6564C26.0971 28.6564 29.4248 25.3307 29.4248 21.2328Z" fill="#FA8200"/>
</svg>
