<svg width="42" height="42" viewBox="0 0 42 42" fill="none" xmlns="http://www.w3.org/2000/svg">
<g clip-path="url(#clip0_73_330)">
<path d="M21 6.04975C20.2755 6.04975 19.6875 5.46175 19.6875 4.73725V1.3125C19.6875 0.588 20.2755 0 21 0C21.7245 0 22.3125 0.588 22.3125 1.3125V4.73725C22.3125 5.46175 21.7245 6.04975 21 6.04975Z" fill="#ABD01B"/>
<path d="M32.4993 10.8132C32.1633 10.8132 31.8273 10.6855 31.5718 10.4282C31.0591 9.91549 31.0591 9.08424 31.5718 8.57149L33.9938 6.14949C34.5066 5.63674 35.3378 5.63674 35.8506 6.14949C36.3633 6.66224 36.3633 7.49349 35.8506 8.00624L33.4286 10.4282C33.1713 10.6837 32.8353 10.8132 32.4993 10.8132Z" fill="#ABD01B"/>
<path d="M40.6874 22.3125H37.2627C36.5382 22.3125 35.9502 21.7245 35.9502 21C35.9502 20.2755 36.5382 19.6875 37.2627 19.6875H40.6874C41.4119 19.6875 41.9999 20.2755 41.9999 21C41.9999 21.7245 41.4119 22.3125 40.6874 22.3125Z" fill="#ABD01B"/>
<path d="M34.9213 36.2337C34.5853 36.2337 34.2493 36.106 33.9938 35.8487L31.5718 33.4267C31.0591 32.914 31.0591 32.0827 31.5718 31.57C32.0846 31.0572 32.9158 31.0572 33.4286 31.57L35.8506 33.992C36.3633 34.5047 36.3633 35.336 35.8506 35.8487C35.5933 36.106 35.2573 36.2337 34.9213 36.2337Z" fill="#ABD01B"/>
<path d="M7.07866 36.2337C6.74266 36.2337 6.40666 36.106 6.15116 35.8487C5.63841 35.336 5.63841 34.5047 6.15116 33.992L8.57316 31.57C9.08591 31.0572 9.91716 31.0572 10.4299 31.57C10.9427 32.0827 10.9427 32.914 10.4299 33.4267L8.00791 35.8487C7.75066 36.106 7.41466 36.2337 7.07866 36.2337Z" fill="#ABD01B"/>
<path d="M4.73725 22.3125H1.3125C0.588 22.3125 0 21.7245 0 21C0 20.2755 0.588 19.6875 1.3125 19.6875H4.73725C5.46175 19.6875 6.04975 20.2755 6.04975 21C6.04975 21.7245 5.46175 22.3125 4.73725 22.3125Z" fill="#ABD01B"/>
<path d="M9.50066 10.8132C9.16466 10.8132 8.82866 10.6855 8.57316 10.4282L6.15116 8.00624C5.63841 7.49349 5.63841 6.66224 6.15116 6.14949C6.66391 5.63674 7.49516 5.63674 8.00791 6.14949L10.4299 8.57149C10.9427 9.08424 10.9427 9.91549 10.4299 10.4282C10.1709 10.6837 9.83666 10.8132 9.50066 10.8132Z" fill="#ABD01B"/>
<path d="M26.25 36.75V38.9375C26.25 40.6175 24.8675 42 23.1875 42H18.8125C17.3425 42 15.75 40.88 15.75 38.43V36.75H26.25Z" fill="#FA8200"/>
<path d="M28.7176 11.48C25.8476 9.15251 22.0676 8.24251 18.3751 9.03001C13.7376 9.99251 9.97505 13.7725 9.01255 18.41C8.03255 23.17 9.81755 27.895 13.6326 30.7825C14.6651 31.5525 15.3826 32.7425 15.6276 34.125V34.1425C15.6626 34.125 15.7151 34.125 15.7501 34.125H26.2501C26.2851 34.125 26.3026 34.125 26.3376 34.1425V34.125C26.5826 32.795 27.3701 31.57 28.5776 30.625C31.5351 28.28 33.2501 24.78 33.2501 21C33.2501 17.29 31.6051 13.825 28.7176 11.48ZM27.5626 21.875C26.8451 21.875 26.2501 21.28 26.2501 20.5625C26.2501 17.9025 24.0976 15.75 21.4376 15.75C20.7201 15.75 20.1251 15.155 20.1251 14.4375C20.1251 13.72 20.7201 13.125 21.4376 13.125C25.5326 13.125 28.8751 16.4675 28.8751 20.5625C28.8751 21.28 28.2801 21.875 27.5626 21.875Z" fill="#ABD01B"/>
<path d="M15.6274 34.125H15.7499C15.7149 34.125 15.6624 34.125 15.6274 34.1425V34.125Z" fill="#ABD01B"/>
<path d="M26.3375 34.125V34.1425C26.3025 34.125 26.285 34.125 26.25 34.125H26.3375Z" fill="#ABD01B"/>
</g>
<defs>
<clipPath id="clip0_73_330">
<rect width="42" height="42" fill="white"/>
</clipPath>
</defs>
</svg>
