<svg width="42" height="42" viewBox="0 0 42 42" fill="none" xmlns="http://www.w3.org/2000/svg">
<g clip-path="url(#clip0_73_288)">
<path d="M21.8859 20.1538C21.879 20.1466 21.8771 20.137 21.87 20.1299L14.8478 13.1077V8.69529C14.8478 8.36839 14.718 8.05602 14.4874 7.82526L7.10455 0.360501C6.7537 0.00973561 6.22378 -0.0972332 5.7635 0.0938176C5.30331 0.283638 5.00406 0.733087 5.00406 1.23052V4.92193H1.23062C0.733263 4.92185 0.283814 5.22102 0.0939935 5.68129C-0.0970573 6.14149 0.00868095 6.67026 0.360759 7.02234L7.8256 14.4871C8.05636 14.7179 8.36873 14.8476 8.69554 14.8476H13.1079L20.1301 21.8698C20.1372 21.8769 20.1468 21.8789 20.154 21.8857C20.6331 22.343 21.3608 22.3491 21.8462 21.8857C22.3574 21.3978 22.346 20.6358 21.8859 20.1538Z" fill="#FA8200"/>
<path d="M21.0001 0.0001297C17.8516 0.0001297 14.8748 0.801165 12.1942 2.05239L15.9688 5.82697C17.553 5.30017 19.2414 5.00404 21.0002 5.00404C29.8201 5.00395 36.9961 12.18 36.9961 21C36.9961 29.8199 29.8201 36.996 21.0001 36.996C12.1801 36.996 5.00407 29.82 5.00407 21C5.00407 19.2412 5.30028 17.5528 5.82701 15.9686L2.05242 12.194C0.801361 14.8747 0.000244141 17.8515 0.000244141 21C0.000244141 32.5343 9.46575 41.9999 21.0001 41.9999C32.5344 41.9999 42 32.5343 42 21C42 9.46563 32.5346 0.0001297 21.0001 0.0001297Z" fill="#ABD01B"/>
<path d="M21.0002 9.92587C19.6996 9.92587 18.4691 10.1925 17.3088 10.6062V12.0888L20.1534 14.9334C20.4328 14.8943 20.7102 14.8477 21.0002 14.8477C24.3924 14.8477 27.1525 17.6078 27.1525 21.0001C27.1525 24.3923 24.3924 27.1524 21.0002 27.1524C17.6079 27.1524 14.8478 24.3923 14.8478 21.0001C14.8478 20.71 14.8944 20.4326 14.9335 20.1533L12.0889 17.3086H10.6063C10.1926 18.4689 9.92603 19.6994 9.92603 21C9.92603 27.1067 14.8936 32.0741 21.0002 32.0741C27.1067 32.0741 32.0744 27.1067 32.0744 21C32.0744 14.8933 27.1068 9.92587 21.0002 9.92587Z" fill="#ABD01B"/>
</g>
<defs>
<clipPath id="clip0_73_288">
<rect width="42" height="42" fill="white"/>
</clipPath>
</defs>
</svg>
