<svg width="42" height="38" viewBox="0 0 42 38" fill="none" xmlns="http://www.w3.org/2000/svg">
<path d="M19.7695 0.883728C15.0263 1.15599 10.5782 2.99915 7.02783 6.16334L12.5187 11.6542C14.585 9.93391 17.0941 8.89433 19.7695 8.64987V0.883728Z" fill="#ABD01B"/>
<path d="M10.7771 13.4908L5.28634 8C2.11944 11.5494 0.273984 15.9978 0 20.7422H7.76647C8.01257 18.0662 9.05436 15.557 10.7771 13.4908Z" fill="#ABD01B"/>
<path d="M34.2326 20.6451H41.999C41.725 15.9008 39.8797 11.4524 36.7127 7.90298L31.2219 13.3937C32.9447 15.4599 33.9865 17.9692 34.2326 20.6451Z" fill="#ABD01B"/>
<path d="M34.2309 23.1061C34.0584 25.0012 33.5176 26.582 32.8779 27.8499C33.5019 28.8123 34.0222 29.6255 34.3659 30.1656C35.3018 31.6366 35.0946 33.5248 33.8619 34.7576C33.5625 35.057 33.2206 35.2981 32.8501 35.4764L34.1289 36.7553C34.3696 36.9959 34.6851 37.1163 35.0005 37.1163C35.316 37.1163 35.6314 36.9959 35.872 36.7553C39.5571 33.0705 41.7059 28.2622 42 23.1061H34.2309Z" fill="#ABD01B"/>
<path d="M7.76918 23.1061H0C0.294082 28.2622 2.44289 33.0705 6.12798 36.7553C6.36866 36.996 6.68407 37.1164 6.99948 37.1164C7.31489 37.1164 7.63038 36.9959 7.87106 36.7553L11.6045 33.0217C12.0857 32.5403 12.0857 31.7599 11.6045 31.2785C10.6302 30.3042 8.17605 27.5765 7.76918 23.1061Z" fill="#ABD01B"/>
<path d="M34.9721 6.16334C31.4217 2.99907 26.9737 1.15599 22.2305 0.883728V8.64987C24.9058 8.89433 27.4149 9.93391 29.4813 11.6542L34.9721 6.16334Z" fill="#ABD01B"/>
<path d="M23.734 19.1622C22.2265 17.6547 19.7736 17.6547 18.2661 19.1622C16.7586 20.6697 16.7586 23.1226 18.2661 24.6301C20.1706 26.5345 29.5299 32.5105 30.5909 33.1856C31.0774 33.4953 31.7137 33.4254 32.1216 33.0176C32.5294 32.6098 32.5993 31.9735 32.2896 31.4869C31.6144 30.426 25.6384 21.0665 23.734 19.1622Z" fill="#FA8200"/>
</svg>
