<svg width="200" height="30" viewBox="0 0 200 30" fill="none" xmlns="http://www.w3.org/2000/svg">
<path d="M0 16.4789C0 9.54226 5.3452 3.94366 12.8707 3.94366C16.2114 3.94366 19.2357 5.07043 21.416 7.04226L18.1807 10.5634C16.5279 9.11972 14.84 8.7324 13.1872 8.7324C8.75628 8.7324 5.52103 12.1831 5.52103 16.4789C5.52103 20.8451 8.68595 24.3662 13.0113 24.3662C15.262 24.3662 17.3367 23.4859 18.8489 21.831L22.1193 25.5282C19.7983 27.7817 16.6334 29.1549 12.9058 29.1549C5.3452 29.1197 0 23.5211 0 16.4789Z" fill="black"/>
<path d="M24.1589 3.94366H29.1876V12.2535C30.6646 10.2817 32.7394 9.50704 34.99 9.50704C39.878 9.50704 41.6715 12.6056 41.6715 17.8873V28.7324H36.6428V18.5211C36.6428 15.7746 35.7988 14.2958 33.3372 14.2958C30.6646 14.2958 29.1876 16.4437 29.1876 19.1549V28.7324H24.1589V3.94366Z" fill="black"/>
<path d="M75.3955 19.2958C75.3955 13.838 79.8264 9.50705 85.4529 9.50705C88.0552 9.50705 90.3058 10.3873 92.2048 11.9014L89.1453 15.4578C88.2662 14.6831 87.0706 14.1901 85.5584 14.1901C82.6397 14.1901 80.5297 16.338 80.5297 19.331C80.5297 22.2535 82.5342 24.4718 85.7343 24.4718C87.3167 24.4718 88.864 23.8732 89.8486 22.9225L92.5212 26.6901C90.7278 28.2394 88.1959 29.1549 85.4881 29.1549C79.8616 29.0845 75.3955 24.7535 75.3955 19.2958Z" fill="black"/>
<path d="M107.467 17.6761C107.08 15.3169 105.216 13.7324 102.93 13.7324C100.75 13.7324 98.8511 15.3169 98.394 17.6761H107.467ZM93.2949 19.2958C93.2949 13.8732 97.5148 9.50705 103.036 9.50705C108.17 9.50705 112.179 13.8732 112.179 19.2254C112.179 20.1409 112.073 21.0211 112.073 21.0211H98.4291C99.0269 23.6268 101.172 24.8592 103.669 24.8592C105.462 24.8592 107.361 24.331 108.733 23.3803L110.632 27.007C108.522 28.4155 106.095 29.0845 103.634 29.0845C98.1126 29.0845 93.2949 25.5282 93.2949 19.2958Z" fill="black"/>
<path d="M126.386 18.6268C129.515 18.6268 131.555 16.4437 131.555 13.7324C131.555 11.0211 129.515 8.83803 126.421 8.83803H120.97V18.6268H126.386ZM115.695 4.29578H126.14C133.278 4.29578 137.041 8.52113 137.041 13.6972C137.041 18.9085 133.278 23.0986 126.104 23.0986H120.97V28.662H115.695V4.29578Z" fill="black"/>
<path d="M153.252 19.2958C153.252 16.3732 151.353 14.1549 148.786 14.1549C146.079 14.1549 144.109 16.338 144.109 19.2958C144.109 22.2887 146.079 24.4366 148.786 24.4366C151.353 24.4366 153.252 22.324 153.252 19.2958ZM138.975 19.2958C138.975 13.8732 142.281 9.50705 147.485 9.50705C149.665 9.50705 151.986 10.3873 153.358 12.1831V9.89437H158.281V28.7324H153.358V26.4789C152.057 28.2747 149.665 29.1197 147.485 29.1197C142.316 29.0845 138.975 24.7183 138.975 19.2958Z" fill="black"/>
<path d="M161.27 19.2958C161.27 13.838 165.701 9.50705 171.328 9.50705C173.93 9.50705 176.181 10.3873 178.08 11.9014L175.02 15.4578C174.141 14.6831 172.945 14.1901 171.433 14.1901C168.514 14.1901 166.404 16.338 166.404 19.331C166.404 22.2535 168.409 24.4718 171.609 24.4718C173.191 24.4718 174.739 23.8732 175.723 22.9225L178.396 26.6901C176.603 28.2394 174.071 29.1549 171.363 29.1549C165.701 29.0845 161.27 24.7535 161.27 19.2958Z" fill="black"/>
<path d="M180.471 3.94366V28.7324H185.535V24.0845L187.68 21.5141L193.306 28.7324H199.355L190.774 18.0986L198.124 9.89437H192.005L185.535 17.7113V3.94366H180.471Z" fill="black"/>
<path d="M64.916 2.71126C66.3578 1.19717 68.1864 0.281679 70.1205 -1.08927e-05C71.4568 -0.176067 72.6173 0.915482 72.5118 2.25351C72.3712 4.19013 71.5623 6.09154 70.1557 7.60562C68.7139 9.11971 66.8853 10.0352 64.9512 10.3169C63.6149 10.4929 62.4544 9.4014 62.5599 8.06337C62.7006 6.12675 63.5094 4.22534 64.916 2.71126Z" fill="#ABD01B"/>
<path d="M72.1953 10.3521C70.7887 11.8662 69.2063 13.1338 67.5535 14.1549V28.6972H72.5822V9.92957C72.4415 10.0704 72.3008 10.2113 72.1953 10.3521Z" fill="black"/>
<path d="M55.4916 16.162C54.2256 17.2887 50.92 17.8521 49.6189 17.8521C49.0562 17.8521 48.8101 17.3943 48.8101 16.6549C48.8101 14.1197 50.498 11.6549 52.9245 11.6549C54.6828 11.6549 56.0191 13.0986 56.0191 15C56.0191 15.4577 55.8432 15.8098 55.4916 16.162ZM54.4718 8.45068C48.5287 8.45068 44.2385 12.9225 44.2385 19.4014C44.2385 25.5634 48.3529 30 54.7179 30C60.45 30 65.1973 26.6197 65.1973 19.7535C65.1973 12.5 60.1335 8.45068 54.4718 8.45068Z" fill="#FA8200"/>
</svg>
