<svg width="117" height="26" viewBox="0 0 117 26" fill="none" xmlns="http://www.w3.org/2000/svg">
<g clip-path="url(#clip0_91_70)">
<path d="M8.52715 20.9896C9.61664 21.3097 10.7431 21.4738 11.8736 21.4738C13.7674 21.4738 15.5832 21.0347 17.2697 20.1709C21.2645 18.1233 23.7472 14.071 23.7472 9.59817V8.03883H18.3736V9.59817C18.3736 13.0492 15.6755 15.8991 12.2306 16.0879C12.1116 16.0941 11.9926 16.0982 11.8736 16.0982C9.44634 16.0982 7.23659 14.7563 6.11016 12.5958C5.628 11.6746 5.37358 10.6364 5.37358 9.59817V0H0V9.59817C0 14.8261 3.50647 19.5103 8.52715 20.9896Z" fill="white"/>
<path d="M17.401 20.5669C15.6714 21.441 13.8125 21.8842 11.8735 21.8842C10.9051 21.8842 9.94078 21.7693 8.99902 21.5415C11.2478 24.3422 14.6681 25.998 18.2607 25.998H27.4875V20.6244H18.2607C17.9776 20.6244 17.6883 20.6039 17.399 20.5669" fill="white"/>
<path d="M18.1993 7.62642C18.2198 7.62642 18.2424 7.62642 18.2629 7.62642H27.4897V2.25079H18.2629C12.3702 2.25079 7.32901 6.63542 6.5083 12.4624C7.57317 14.4506 9.62494 15.6837 11.8757 15.6837C11.9024 15.6837 11.9291 15.6837 11.9537 15.6837C11.8265 15.1728 11.7629 14.6496 11.7629 14.1264C11.7629 10.5974 14.6354 7.68182 18.1644 7.62848H18.1993V7.62642Z" fill="white"/>
<path d="M23.7471 0.0471802H18.3735V1.83837H23.7471V0.0471802Z" fill="white"/>
<path d="M33.4211 14.8281V8.96622H34.5599V14.7584C34.5599 16.9332 35.7253 18.1581 37.6416 18.1581C39.558 18.1581 40.6803 17.0338 40.6803 14.8302V8.96827H41.819V14.744C41.819 17.6821 40.1345 19.2107 37.6129 19.2107C35.0913 19.2107 33.4211 17.6842 33.4211 14.8322" fill="white"/>
<path d="M44.5828 8.96622H45.6497L52.002 17.0481V8.96622H53.112V19.0507H52.203L45.6928 10.78V19.0507H44.5828V8.96622Z" fill="white"/>
<path d="M57.1705 8.96622H56.0317V19.0507H57.1705V8.96622Z" fill="white"/>
<path d="M59.45 14.0361V14.0074C59.45 11.1411 61.6105 8.79181 64.7086 8.79181C66.6106 8.79181 67.7473 9.42581 68.685 10.347L67.2733 11.9741C66.4957 11.2683 65.7037 10.8354 64.6943 10.8354C62.9954 10.8354 61.7705 12.247 61.7705 13.9766V14.0054C61.7705 15.735 62.9667 17.1753 64.6943 17.1753C65.8453 17.1753 66.5532 16.7137 67.3452 15.9935L68.7568 17.4195C67.7206 18.5295 66.5675 19.2209 64.6225 19.2209C61.6535 19.2209 59.45 16.9291 59.45 14.0341" fill="white"/>
<path d="M70.3591 8.96622H72.5771V12.9569H76.6683V8.96622H78.8863V19.0507H76.6683V15.0025H72.5771V19.0507H70.3591V8.96622Z" fill="white"/>
<path d="M80.8354 14.0361V14.0074C80.8354 11.1411 83.0965 8.79181 86.209 8.79181C89.3216 8.79181 91.5539 11.1124 91.5539 13.9787V14.0074C91.5539 16.8737 89.2928 19.223 86.1803 19.223C83.0678 19.223 80.8354 16.9024 80.8354 14.0361ZM89.2333 14.0361V14.0074C89.2333 12.2778 87.9653 10.8374 86.1803 10.8374C84.3953 10.8374 83.156 12.249 83.156 13.9787V14.0074C83.156 15.737 84.424 17.1774 86.209 17.1774C87.9941 17.1774 89.2333 15.7658 89.2333 14.0361Z" fill="white"/>
<path d="M93.5482 10.3286V19.0486H95.7662V9.57355C95.3209 9.80335 94.8449 9.99211 94.3381 10.1234L93.5461 10.3286H93.5482Z" fill="white"/>
<path d="M97.7339 14.0361V14.0074C97.7339 11.1411 99.8944 8.79181 102.993 8.79181C104.895 8.79181 106.033 9.42581 106.969 10.347L105.557 11.9741C104.78 11.2683 103.988 10.8354 102.978 10.8354C101.277 10.8354 100.054 12.247 100.054 13.9766V14.0054C100.054 15.735 101.249 17.1753 102.978 17.1753C104.129 17.1753 104.837 16.7137 105.629 15.9935L107.041 17.4195C106.005 18.5295 104.851 19.2209 102.906 19.2209C99.9395 19.2209 97.7339 16.9291 97.7339 14.0341" fill="white"/>
<path d="M108.643 8.96622V19.0507H116.321V17.0769H110.847V14.9594H115.601V12.9856H110.847V10.94H116.249V8.96622H108.643Z" fill="white"/>
<path d="M93.5257 8.8821L94.8963 8.52714C96.9399 7.99984 98.1915 5.94807 97.7565 3.90451L96.3859 4.25947C94.3423 4.78677 93.0887 6.83854 93.5257 8.8821Z" fill="white"/>
</g>
<defs>
<clipPath id="clip0_91_70">
<rect width="116.321" height="26" fill="white"/>
</clipPath>
</defs>
</svg>
